<svg width="40" height="40" viewBox="0 0 40 40" fill="none" xmlns="http://www.w3.org/2000/svg">
<circle cx="20" cy="20" r="20" fill="#1A1E23"/>
<path d="M9.50002 18.6481C9.50229 18.965 9.60641 19.2728 9.797 19.5261C9.98759 19.7793 10.2545 19.9645 10.5585 20.0544L17.736 22.2631L19.9447 29.4406C20.0347 29.7445 20.22 30.0113 20.4732 30.2019C20.7264 30.3925 21.0341 30.4966 21.351 30.4991H21.3791C21.6898 30.502 21.9936 30.4069 22.2472 30.2273C22.5008 30.0477 22.6914 29.7928 22.7919 29.4988L28.9063 13.0072C28.9083 13.0023 28.9098 12.9973 28.911 12.9922C29.0024 12.7267 29.0174 12.4409 28.9544 12.1673C28.8914 11.8937 28.7529 11.6433 28.5546 11.4445C28.3564 11.2457 28.1063 11.1066 27.8328 11.0429C27.5594 10.9793 27.2735 10.9936 27.0078 11.0844L26.9928 11.0891L10.5003 17.2072C10.2017 17.3093 9.94355 17.5042 9.76358 17.7634C9.58361 18.0227 9.49126 18.3327 9.50002 18.6481Z" fill="#8A96A8"/>
</svg>
