<svg width="72" height="24" viewBox="0 0 72 24"  xmlns="http://www.w3.org/2000/svg">
<path fill-rule="evenodd" clip-rule="evenodd" d="M4.90115 0L3.6751 3.13946H20.6654L21.8915 0H4.90115ZM3.06169 4.70848L1.83564 7.84723H18.826L20.052 4.70848H3.06169ZM1.22605 9.41696L0 12.5557H16.9903L18.2156 9.41696H1.22605Z" fill="#009FDF"/>
<mask id="mask0_99_204" style="mask-type:luminance" maskUnits="userSpaceOnUse" x="25" y="4" width="47" height="20">
<path d="M25.491 24H72.0001V4.76883H25.491V24Z" />
</mask>
<g mask="url(#mask0_99_204)">
<path fill-rule="evenodd" clip-rule="evenodd" d="M36.1204 13.7521V13.8183C36.8969 14.0847 37.6386 14.5506 38.0272 14.8498C39.2278 15.7815 39.7578 17.0124 39.7578 18.6095C39.7578 21.2387 38.2744 23.1349 35.8377 23.734C35.096 23.9335 34.3195 24.0004 32.8709 24.0004H25.491V4.76883H32.0241C33.3661 4.76883 34.2839 4.83507 35.096 5.03452C37.4624 5.6336 39.0161 7.16441 39.0161 9.59274C39.0161 10.8906 38.5217 11.9891 37.7097 12.7206C37.3566 13.0533 36.8621 13.4529 36.1204 13.7521ZM29.5873 15.7815V20.8391H32.4127C33.2595 20.8391 34.0367 20.7728 34.6023 20.2735C35.167 19.7741 35.4143 19.1423 35.4143 18.3103C35.4143 17.6785 35.2373 17.0794 34.8843 16.647C34.2839 15.9482 33.5423 15.7815 32.2713 15.7815H29.5873ZM29.5518 12.4542H31.8472C32.5533 12.4542 32.9064 12.4542 33.2595 12.3545C34.2136 12.088 34.814 11.2902 34.814 10.1918C34.814 8.89467 34.1781 8.32835 33.2595 8.06266C32.8709 7.96294 32.483 7.92945 31.7058 7.92945H29.5518V12.4542ZM45.9023 24.0004V7.99569H40.0051V4.76883H56.3912L55.2261 7.99569H49.9987V24.0004H45.9023ZM57.6621 24.0004V4.76883H70.9408L69.7757 7.99569H61.7237V12.2547H65.008C67.6565 12.2547 69.034 12.8538 69.9874 13.6189C70.7291 14.2179 72.0001 15.5486 72.0001 18.1778C72.0001 20.7728 70.6936 22.2032 69.5988 22.9355C68.3279 23.7668 66.9859 24.0004 64.2663 24.0004H57.6621ZM61.7237 20.7728H64.7963C65.9614 20.7728 66.6676 20.5064 67.162 19.9073C67.4093 19.6082 67.7623 19.0753 67.7623 18.0774C67.7623 17.0794 67.4093 16.3806 66.7031 15.8812C66.2797 15.5821 65.7142 15.4161 64.7608 15.4161H61.7237V20.7728Z" fill="white"/>
</g>
</svg>
